  0
SECTION
  2
HEADER
  9
$ANGBASE
  50
0.0
  9
$ANGDIR
  70
  1
  9
$MEASUREMENT
  70
0
  0
ENDSEC
  0
SECTION
  2
TABLES
  0
TABLE
  2
LTYPE
  70
1
  0
LTYPE
  2
CONTINUOUS
  70
0
  3
Solid line
  72
65
  73
0
  40
0.0
  0
ENDTAB
  0
TABLE
  2
STYLE
  70
4
  0
STYLE
  2
KICAD
  70
0
  40
0
  41
1
  42
1
  50
0
  71
0
  3
isocp.shx
  0
STYLE
  2
KICADB
  70
0
  40
0
  41
1
  42
1
  50
0
  71
0
  3
isocp.shx
  0
STYLE
  2
KICADI
  70
0
  40
0
  41
1
  42
1
  50
15
  71
0
  3
isocp.shx
  0
STYLE
  2
KICADBI
  70
0
  40
0
  41
1
  42
1
  50
15
  71
0
  3
isocp.shx
  0
ENDTAB
  0
TABLE
  2
LAYER
  70
30
  0
LAYER
  2
BLACK
  70
0
  62
7
  6
CONTINUOUS
  0
LAYER
  2
GRAY1
  70
0
  62
251
  6
CONTINUOUS
  0
LAYER
  2
GRAY2
  70
0
  62
8
  6
CONTINUOUS
  0
LAYER
  2
GRAY3
  70
0
  62
9
  6
CONTINUOUS
  0
LAYER
  2
WHITE
  70
0
  62
7
  6
CONTINUOUS
  0
LAYER
  2
LYELLOW
  70
0
  62
51
  6
CONTINUOUS
  0
LAYER
  2
BLUE1
  70
0
  62
178
  6
CONTINUOUS
  0
LAYER
  2
GREEN1
  70
0
  62
98
  6
CONTINUOUS
  0
LAYER
  2
CYAN1
  70
0
  62
138
  6
CONTINUOUS
  0
LAYER
  2
RED1
  70
0
  62
18
  6
CONTINUOUS
  0
LAYER
  2
MAGENTA1
  70
0
  62
228
  6
CONTINUOUS
  0
LAYER
  2
BROWN1
  70
0
  62
58
  6
CONTINUOUS
  0
LAYER
  2
BLUE2
  70
0
  62
5
  6
CONTINUOUS
  0
LAYER
  2
GREEN2
  70
0
  62
3
  6
CONTINUOUS
  0
LAYER
  2
CYAN2
  70
0
  62
4
  6
CONTINUOUS
  0
LAYER
  2
RED2
  70
0
  62
1
  6
CONTINUOUS
  0
LAYER
  2
MAGENTA2
  70
0
  62
6
  6
CONTINUOUS
  0
LAYER
  2
BROWN2
  70
0
  62
54
  6
CONTINUOUS
  0
LAYER
  2
BLUE3
  70
0
  62
171
  6
CONTINUOUS
  0
LAYER
  2
GREEN3
  70
0
  62
91
  6
CONTINUOUS
  0
LAYER
  2
CYAN3
  70
0
  62
131
  6
CONTINUOUS
  0
LAYER
  2
RED3
  70
0
  62
11
  6
CONTINUOUS
  0
LAYER
  2
MAGENTA3
  70
0
  62
221
  6
CONTINUOUS
  0
LAYER
  2
YELLOW3
  70
0
  62
2
  6
CONTINUOUS
  0
LAYER
  2
BLUE4
  70
0
  62
5
  6
CONTINUOUS
  0
LAYER
  2
GREEN4
  70
0
  62
3
  6
CONTINUOUS
  0
LAYER
  2
CYAN4
  70
0
  62
4
  6
CONTINUOUS
  0
LAYER
  2
RED4
  70
0
  62
1
  6
CONTINUOUS
  0
LAYER
  2
MAGENTA4
  70
0
  62
6
  6
CONTINUOUS
  0
LAYER
  2
YELLOW4
  70
0
  62
2
  6
CONTINUOUS
  0
ENDTAB
  0
ENDSEC
  0
SECTION
  2
ENTITIES
0
LINE
8
Black
10
189.366
20
-60.4261
11
189.373
21
-60.4261
0
LINE
8
Black
10
189.373
20
-60.4261
11
189.379
21
-60.4284
0
LINE
8
Black
10
189.379
20
-60.4284
11
189.386
21
-60.4295
0
LINE
8
Black
10
189.386
20
-60.4295
11
189.391
21
-60.4328
0
LINE
8
Black
10
189.391
20
-60.4328
11
189.397
21
-60.435
0
LINE
8
Black
10
189.397
20
-60.435
11
189.403
21
-60.4393
0
LINE
8
Black
10
189.403
20
-60.4393
11
189.408
21
-60.4425
0
LINE
8
Black
10
189.408
20
-60.4425
11
189.412
21
-60.4476
0
LINE
8
Black
10
189.412
20
-60.4476
11
189.417
21
-60.4518
0
LINE
8
Black
10
189.417
20
-60.4518
11
189.421
21
-60.4575
0
LINE
8
Black
10
189.421
20
-60.4575
11
189.425
21
-60.4625
0
LINE
8
Black
10
189.425
20
-60.4625
11
189.427
21
-60.4687
0
LINE
8
Black
10
189.427
20
-60.4687
11
189.43
21
-60.4743
0
LINE
8
Black
10
189.43
20
-60.4743
11
189.432
21
-60.4808
0
LINE
8
Black
10
189.432
20
-60.4808
11
189.434
21
-60.487
0
LINE
8
Black
10
189.434
20
-60.487
11
189.434
21
-60.4935
0
LINE
8
Black
10
189.434
20
-60.4935
11
189.435
21
-60.5
0
LINE
8
Black
10
189.435
20
-60.5
11
189.435
21
-66.9451
0
LINE
8
Black
10
189.435
20
-66.9451
11
208.115
21
-66.9649
0
LINE
8
Black
10
208.115
20
-66.9649
11
208.115
21
-60.5
0
LINE
8
Black
10
208.115
20
-60.5
11
208.116
21
-60.4935
0
LINE
8
Black
10
208.116
20
-60.4935
11
208.116
21
-60.487
0
LINE
8
Black
10
208.116
20
-60.487
11
208.118
21
-60.4808
0
LINE
8
Black
10
208.118
20
-60.4808
11
208.12
21
-60.4743
0
LINE
8
Black
10
208.12
20
-60.4743
11
208.123
21
-60.4687
0
LINE
8
Black
10
208.123
20
-60.4687
11
208.125
21
-60.4625
0
LINE
8
Black
10
208.125
20
-60.4625
11
208.129
21
-60.4575
0
LINE
8
Black
10
208.129
20
-60.4575
11
208.133
21
-60.4518
0
LINE
8
Black
10
208.133
20
-60.4518
11
208.138
21
-60.4476
0
LINE
8
Black
10
208.138
20
-60.4476
11
208.142
21
-60.4425
0
LINE
8
Black
10
208.142
20
-60.4425
11
208.147
21
-60.4393
0
LINE
8
Black
10
208.147
20
-60.4393
11
208.153
21
-60.435
0
LINE
8
Black
10
208.153
20
-60.435
11
208.159
21
-60.4328
0
LINE
8
Black
10
208.159
20
-60.4328
11
208.164
21
-60.4295
0
LINE
8
Black
10
208.164
20
-60.4295
11
208.171
21
-60.4284
0
LINE
8
Black
10
208.171
20
-60.4284
11
208.177
21
-60.4261
0
LINE
8
Black
10
208.177
20
-60.4261
11
208.184
21
-60.4261
0
LINE
8
Black
10
208.184
20
-60.4261
11
208.19
21
-60.425
0
LINE
8
Black
10
208.19
20
-60.425
11
236.5
21
-60.425
0
LINE
8
Black
10
236.5
20
-60.425
11
236.506
21
-60.4261
0
LINE
8
Black
10
236.506
20
-60.4261
11
236.513
21
-60.4261
0
LINE
8
Black
10
236.513
20
-60.4261
11
237.368
21
-60.5769
0
LINE
8
Black
10
237.368
20
-60.5769
11
237.393
21
-60.5858
0
LINE
8
Black
10
237.393
20
-60.5858
11
238.144
21
-61.0199
0
LINE
8
Black
10
238.144
20
-61.0199
11
238.164
21
-61.0367
0
LINE
8
Black
10
238.164
20
-61.0367
11
238.723
21
-61.7018
0
LINE
8
Black
10
238.723
20
-61.7018
11
238.736
21
-61.7243
0
LINE
8
Black
10
238.736
20
-61.7243
11
239.032
21
-62.5402
0
LINE
8
Black
10
239.032
20
-62.5402
11
239.034
21
-62.5499
0
LINE
8
Black
10
239.034
20
-62.5499
11
239.037
21
-62.5593
0
LINE
8
Black
10
239.037
20
-62.5593
11
239.075
21
-62.9935
0
LINE
8
Black
10
239.075
20
-62.9935
11
239.074
21
-62.9968
0
LINE
8
Black
10
239.074
20
-62.9968
11
239.075
21
-63
0
LINE
8
Black
10
239.075
20
-63
11
239.075
21
-135.5
0
LINE
8
Black
10
239.075
20
-135.5
11
239.074
21
-135.506
0
LINE
8
Black
10
239.074
20
-135.506
11
239.074
21
-135.513
0
LINE
8
Black
10
239.074
20
-135.513
11
238.923
21
-136.368
0
LINE
8
Black
10
238.923
20
-136.368
11
238.914
21
-136.393
0
LINE
8
Black
10
238.914
20
-136.393
11
238.48
21
-137.144
0
LINE
8
Black
10
238.48
20
-137.144
11
238.463
21
-137.164
0
LINE
8
Black
10
238.463
20
-137.164
11
238.463
21
-137.164
0
LINE
8
Black
10
238.463
20
-137.164
11
237.798
21
-137.723
0
LINE
8
Black
10
237.798
20
-137.723
11
237.776
21
-137.736
0
LINE
8
Black
10
237.776
20
-137.736
11
236.96
21
-138.032
0
LINE
8
Black
10
236.96
20
-138.032
11
236.95
21
-138.034
0
LINE
8
Black
10
236.95
20
-138.034
11
236.941
21
-138.037
0
LINE
8
Black
10
236.941
20
-138.037
11
236.507
21
-138.075
0
LINE
8
Black
10
236.507
20
-138.075
11
236.503
21
-138.074
0
LINE
8
Black
10
236.503
20
-138.074
11
236.5
21
-138.075
0
LINE
8
Black
10
236.5
20
-138.075
11
144.5
21
-138.075
0
LINE
8
Black
10
144.5
20
-138.075
11
144.494
21
-138.074
0
LINE
8
Black
10
144.494
20
-138.074
11
144.487
21
-138.074
0
LINE
8
Black
10
144.487
20
-138.074
11
143.632
21
-137.923
0
LINE
8
Black
10
143.632
20
-137.923
11
143.607
21
-137.914
0
LINE
8
Black
10
143.607
20
-137.914
11
142.856
21
-137.48
0
LINE
8
Black
10
142.856
20
-137.48
11
142.836
21
-137.463
0
LINE
8
Black
10
142.836
20
-137.463
11
142.836
21
-137.463
0
LINE
8
Black
10
142.836
20
-137.463
11
142.277
21
-136.798
0
LINE
8
Black
10
142.277
20
-136.798
11
142.264
21
-136.776
0
LINE
8
Black
10
142.264
20
-136.776
11
141.968
21
-135.96
0
LINE
8
Black
10
141.968
20
-135.96
11
141.966
21
-135.95
0
LINE
8
Black
10
141.966
20
-135.95
11
141.963
21
-135.941
0
LINE
8
Black
10
141.963
20
-135.941
11
141.925
21
-135.507
0
LINE
8
Black
10
141.925
20
-135.507
11
141.926
21
-135.503
0
LINE
8
Black
10
141.926
20
-135.503
11
141.925
21
-135.5
0
LINE
8
Black
10
141.925
20
-135.5
11
141.925
21
-63
0
LINE
8
Black
10
141.925
20
-63
11
141.926
21
-62.9935
0
LINE
8
Black
10
141.926
20
-62.9935
11
141.926
21
-62.987
0
LINE
8
Black
10
141.926
20
-62.987
11
142.077
21
-62.1319
0
LINE
8
Black
10
142.077
20
-62.1319
11
142.086
21
-62.1075
0
LINE
8
Black
10
142.086
20
-62.1075
11
142.52
21
-61.3555
0
LINE
8
Black
10
142.52
20
-61.3555
11
142.537
21
-61.3356
0
LINE
8
Black
10
142.537
20
-61.3356
11
143.202
21
-60.7775
0
LINE
8
Black
10
143.202
20
-60.7775
11
143.224
21
-60.7645
0
LINE
8
Black
10
143.224
20
-60.7645
11
144.04
21
-60.4675
0
LINE
8
Black
10
144.04
20
-60.4675
11
144.05
21
-60.4658
0
LINE
8
Black
10
144.05
20
-60.4658
11
144.059
21
-60.4633
0
LINE
8
Black
10
144.059
20
-60.4633
11
144.493
21
-60.4253
0
LINE
8
Black
10
144.493
20
-60.4253
11
144.497
21
-60.4256
0
LINE
8
Black
10
144.497
20
-60.4256
11
144.5
21
-60.425
0
LINE
8
Black
10
144.5
20
-60.425
11
189.36
21
-60.425
0
LINE
8
Black
10
189.36
20
-60.425
11
189.366
21
-60.4261
0
LINE
8
Black
10
144.503
20
-60.575
11
144.082
21
-60.6118
0
LINE
8
Black
10
144.082
20
-60.6118
11
143.288
21
-60.9009
0
LINE
8
Black
10
143.288
20
-60.9009
11
142.643
21
-61.442
0
LINE
8
Black
10
142.643
20
-61.442
11
142.222
21
-62.171
0
LINE
8
Black
10
142.222
20
-62.171
11
142.075
21
-63.0066
0
LINE
8
Black
10
142.075
20
-63.0066
11
142.075
21
-135.497
0
LINE
8
Black
10
142.075
20
-135.497
11
142.112
21
-135.918
0
LINE
8
Black
10
142.112
20
-135.918
11
142.401
21
-136.712
0
LINE
8
Black
10
142.401
20
-136.712
11
142.942
21
-137.357
0
LINE
8
Black
10
142.942
20
-137.357
11
143.671
21
-137.778
0
LINE
8
Black
10
143.671
20
-137.778
11
144.507
21
-137.925
0
LINE
8
Black
10
144.507
20
-137.925
11
236.497
21
-137.925
0
LINE
8
Black
10
236.497
20
-137.925
11
236.918
21
-137.888
0
LINE
8
Black
10
236.918
20
-137.888
11
237.712
21
-137.599
0
LINE
8
Black
10
237.712
20
-137.599
11
238.357
21
-137.058
0
LINE
8
Black
10
238.357
20
-137.058
11
238.778
21
-136.329
0
LINE
8
Black
10
238.778
20
-136.329
11
238.925
21
-135.493
0
LINE
8
Black
10
238.925
20
-135.493
11
238.925
21
-63.0033
0
LINE
8
Black
10
238.925
20
-63.0033
11
238.888
21
-62.5823
0
LINE
8
Black
10
238.888
20
-62.5823
11
238.599
21
-61.7881
0
LINE
8
Black
10
238.599
20
-61.7881
11
238.058
21
-61.1432
0
LINE
8
Black
10
238.058
20
-61.1432
11
237.329
21
-60.7223
0
LINE
8
Black
10
237.329
20
-60.7223
11
236.493
21
-60.575
0
LINE
8
Black
10
236.493
20
-60.575
11
208.265
21
-60.575
0
LINE
8
Black
10
208.265
20
-60.575
11
208.265
21
-67.04
0
LINE
8
Black
10
208.265
20
-67.04
11
208.264
21
-67.0465
0
LINE
8
Black
10
208.264
20
-67.0465
11
208.264
21
-67.0531
0
LINE
8
Black
10
208.264
20
-67.0531
11
208.262
21
-67.0592
0
LINE
8
Black
10
208.262
20
-67.0592
11
208.26
21
-67.0657
0
LINE
8
Black
10
208.26
20
-67.0657
11
208.257
21
-67.0714
0
LINE
8
Black
10
208.257
20
-67.0714
11
208.255
21
-67.0776
0
LINE
8
Black
10
208.255
20
-67.0776
11
208.251
21
-67.0826
0
LINE
8
Black
10
208.251
20
-67.0826
11
208.247
21
-67.0882
0
LINE
8
Black
10
208.247
20
-67.0882
11
208.242
21
-67.0925
0
LINE
8
Black
10
208.242
20
-67.0925
11
208.238
21
-67.0975
0
LINE
8
Black
10
208.238
20
-67.0975
11
208.232
21
-67.1008
0
LINE
8
Black
10
208.232
20
-67.1008
11
208.227
21
-67.105
0
LINE
8
Black
10
208.227
20
-67.105
11
208.221
21
-67.1072
0
LINE
8
Black
10
208.221
20
-67.1072
11
208.216
21
-67.1105
0
LINE
8
Black
10
208.216
20
-67.1105
11
208.209
21
-67.1116
0
LINE
8
Black
10
208.209
20
-67.1116
11
208.203
21
-67.1139
0
LINE
8
Black
10
208.203
20
-67.1139
11
208.196
21
-67.1139
0
LINE
8
Black
10
208.196
20
-67.1139
11
208.19
21
-67.115
0
LINE
8
Black
10
208.19
20
-67.115
11
189.36
21
-67.095
0
LINE
8
Black
10
189.36
20
-67.095
11
189.334
21
-67.0904
0
LINE
8
Black
10
189.334
20
-67.0904
11
189.312
21
-67.0774
0
LINE
8
Black
10
189.312
20
-67.0774
11
189.295
21
-67.0574
0
LINE
8
Black
10
189.295
20
-67.0574
11
189.286
21
-67.0329
0
LINE
8
Black
10
189.286
20
-67.0329
11
189.286
21
-67.0165
0
LINE
8
Black
10
189.286
20
-67.0165
11
189.285
21
-67.01
0
LINE
8
Black
10
189.285
20
-67.01
11
189.285
21
-60.575
0
LINE
8
Black
10
189.285
20
-60.575
11
144.503
21
-60.575
0
LINE
8
Black
10
236.003
20
-126.328
11
236.093
21
-126.38
0
LINE
8
Black
10
236.093
20
-126.38
11
236.16
21
-126.46
0
LINE
8
Black
10
236.16
20
-126.46
11
236.195
21
-126.558
0
LINE
8
Black
10
236.195
20
-126.558
11
236.195
21
-126.662
0
LINE
8
Black
10
236.195
20
-126.662
11
236.16
21
-126.76
0
LINE
8
Black
10
236.16
20
-126.76
11
236.093
21
-126.84
0
LINE
8
Black
10
236.093
20
-126.84
11
236.003
21
-126.892
0
LINE
8
Black
10
236.003
20
-126.892
11
235.9
21
-126.91
0
LINE
8
Black
10
235.9
20
-126.91
11
225.369
21
-126.91
0
LINE
8
Black
10
225.369
20
-126.91
11
222.279
21
-130.554
0
LINE
8
Black
10
222.279
20
-130.554
11
222.199
21
-130.621
0
LINE
8
Black
10
222.199
20
-130.621
11
222.101
21
-130.656
0
LINE
8
Black
10
222.101
20
-130.656
11
221.996
21
-130.655
0
LINE
8
Black
10
221.996
20
-130.655
11
221.899
21
-130.619
0
LINE
8
Black
10
221.899
20
-130.619
11
221.819
21
-130.552
0
LINE
8
Black
10
221.819
20
-130.552
11
221.768
21
-130.461
0
LINE
8
Black
10
221.768
20
-130.461
11
221.75
21
-130.358
0
LINE
8
Black
10
221.75
20
-130.358
11
221.769
21
-130.256
0
LINE
8
Black
10
221.769
20
-130.256
11
221.821
21
-130.166
0
LINE
8
Black
10
221.821
20
-130.166
11
225.001
21
-126.416
0
LINE
8
Black
10
225.001
20
-126.416
11
225.021
21
-126.4
0
LINE
8
Black
10
225.021
20
-126.4
11
225.037
21
-126.38
0
LINE
8
Black
10
225.037
20
-126.38
11
225.061
21
-126.367
0
LINE
8
Black
10
225.061
20
-126.367
11
225.081
21
-126.349
0
LINE
8
Black
10
225.081
20
-126.349
11
225.105
21
-126.341
0
LINE
8
Black
10
225.105
20
-126.341
11
225.127
21
-126.328
0
LINE
8
Black
10
225.127
20
-126.328
11
225.154
21
-126.323
0
LINE
8
Black
10
225.154
20
-126.323
11
225.179
21
-126.314
0
LINE
8
Black
10
225.179
20
-126.314
11
225.205
21
-126.314
0
LINE
8
Black
10
225.205
20
-126.314
11
225.23
21
-126.31
0
LINE
8
Black
10
225.23
20
-126.31
11
235.9
21
-126.31
0
LINE
8
Black
10
235.9
20
-126.31
11
236.003
21
-126.328
0
LINE
8
Black
10
236.003
20
-129.768
11
236.093
21
-129.82
0
LINE
8
Black
10
236.093
20
-129.82
11
236.16
21
-129.9
0
LINE
8
Black
10
236.16
20
-129.9
11
236.195
21
-129.998
0
LINE
8
Black
10
236.195
20
-129.998
11
236.195
21
-130.102
0
LINE
8
Black
10
236.195
20
-130.102
11
236.16
21
-130.2
0
LINE
8
Black
10
236.16
20
-130.2
11
236.093
21
-130.28
0
LINE
8
Black
10
236.093
20
-130.28
11
236.003
21
-130.332
0
LINE
8
Black
10
236.003
20
-130.332
11
235.9
21
-130.35
0
LINE
8
Black
10
235.9
20
-130.35
11
228.97
21
-130.35
0
LINE
8
Black
10
228.97
20
-130.35
11
228.867
21
-130.332
0
LINE
8
Black
10
228.867
20
-130.332
11
228.777
21
-130.28
0
LINE
8
Black
10
228.777
20
-130.28
11
228.71
21
-130.2
0
LINE
8
Black
10
228.71
20
-130.2
11
228.675
21
-130.102
0
LINE
8
Black
10
228.675
20
-130.102
11
228.675
21
-129.998
0
LINE
8
Black
10
228.675
20
-129.998
11
228.71
21
-129.9
0
LINE
8
Black
10
228.71
20
-129.9
11
228.777
21
-129.82
0
LINE
8
Black
10
228.777
20
-129.82
11
228.867
21
-129.768
0
LINE
8
Black
10
228.867
20
-129.768
11
228.97
21
-129.75
0
LINE
8
Black
10
228.97
20
-129.75
11
235.9
21
-129.75
0
LINE
8
Black
10
235.9
20
-129.75
11
236.003
21
-129.768
0
LINE
8
Black
10
219.553
20
-121.668
11
219.643
21
-121.72
0
LINE
8
Black
10
219.643
20
-121.72
11
219.71
21
-121.8
0
LINE
8
Black
10
219.71
20
-121.8
11
219.745
21
-121.898
0
LINE
8
Black
10
219.745
20
-121.898
11
219.745
21
-122.002
0
LINE
8
Black
10
219.745
20
-122.002
11
219.71
21
-122.1
0
LINE
8
Black
10
219.71
20
-122.1
11
219.643
21
-122.18
0
LINE
8
Black
10
219.643
20
-122.18
11
219.553
21
-122.232
0
LINE
8
Black
10
219.553
20
-122.232
11
219.45
21
-122.25
0
LINE
8
Black
10
219.45
20
-122.25
11
211.946
21
-122.25
0
LINE
8
Black
10
211.946
20
-122.25
11
210.11
21
-123.564
0
LINE
8
Black
10
210.11
20
-123.564
11
210.11
21
-126.637
0
LINE
8
Black
10
210.11
20
-126.637
11
211.936
21
-128.11
0
LINE
8
Black
10
211.936
20
-128.11
11
219.45
21
-128.11
0
LINE
8
Black
10
219.45
20
-128.11
11
219.553
21
-128.128
0
LINE
8
Black
10
219.553
20
-128.128
11
219.643
21
-128.18
0
LINE
8
Black
10
219.643
20
-128.18
11
219.71
21
-128.26
0
LINE
8
Black
10
219.71
20
-128.26
11
219.745
21
-128.358
0
LINE
8
Black
10
219.745
20
-128.358
11
219.745
21
-128.462
0
LINE
8
Black
10
219.745
20
-128.462
11
219.71
21
-128.56
0
LINE
8
Black
10
219.71
20
-128.56
11
219.643
21
-128.64
0
LINE
8
Black
10
219.643
20
-128.64
11
219.553
21
-128.692
0
LINE
8
Black
10
219.553
20
-128.692
11
219.45
21
-128.71
0
LINE
8
Black
10
219.45
20
-128.71
11
211.83
21
-128.71
0
LINE
8
Black
10
211.83
20
-128.71
11
211.781
21
-128.701
0
LINE
8
Black
10
211.781
20
-128.701
11
211.733
21
-128.694
0
LINE
8
Black
10
211.733
20
-128.694
11
211.73
21
-128.692
0
LINE
8
Black
10
211.73
20
-128.692
11
211.727
21
-128.692
0
LINE
8
Black
10
211.727
20
-128.692
11
211.685
21
-128.667
0
LINE
8
Black
10
211.685
20
-128.667
11
211.642
21
-128.643
0
LINE
8
Black
10
211.642
20
-128.643
11
209.622
21
-127.013
0
LINE
8
Black
10
209.622
20
-127.013
11
209.553
21
-126.935
0
LINE
8
Black
10
209.553
20
-126.935
11
209.516
21
-126.838
0
LINE
8
Black
10
209.516
20
-126.838
11
209.514
21
-126.775
0
LINE
8
Black
10
209.514
20
-126.775
11
209.51
21
-126.75
0
LINE
8
Black
10
209.51
20
-126.75
11
209.51
21
-123.41
0
LINE
8
Black
10
209.51
20
-123.41
11
209.517
21
-123.373
0
LINE
8
Black
10
209.517
20
-123.373
11
209.519
21
-123.335
0
LINE
8
Black
10
209.519
20
-123.335
11
209.526
21
-123.322
0
LINE
8
Black
10
209.526
20
-123.322
11
209.528
21
-123.307
0
LINE
8
Black
10
209.528
20
-123.307
11
209.547
21
-123.275
0
LINE
8
Black
10
209.547
20
-123.275
11
209.562
21
-123.24
0
LINE
8
Black
10
209.562
20
-123.24
11
209.573
21
-123.23
0
LINE
8
Black
10
209.573
20
-123.23
11
209.58
21
-123.217
0
LINE
8
Black
10
209.58
20
-123.217
11
209.609
21
-123.193
0
LINE
8
Black
10
209.609
20
-123.193
11
209.635
21
-123.166
0
LINE
8
Black
10
209.635
20
-123.166
11
211.675
21
-121.706
0
LINE
8
Black
10
211.675
20
-121.706
11
211.712
21
-121.688
0
LINE
8
Black
10
211.712
20
-121.688
11
211.747
21
-121.668
0
LINE
8
Black
10
211.747
20
-121.668
11
211.759
21
-121.666
0
LINE
8
Black
10
211.759
20
-121.666
11
211.769
21
-121.661
0
LINE
8
Black
10
211.769
20
-121.661
11
211.81
21
-121.657
0
LINE
8
Black
10
211.81
20
-121.657
11
211.85
21
-121.65
0
LINE
8
Black
10
211.85
20
-121.65
11
219.45
21
-121.65
0
LINE
8
Black
10
219.45
20
-121.65
11
219.553
21
-121.668
0
LINE
8
Black
10
222.299
20
-118.786
11
222.396
21
-118.824
0
LINE
8
Black
10
222.396
20
-118.824
11
222.474
21
-118.893
0
LINE
8
Black
10
222.474
20
-118.893
11
225.464
21
-122.63
0
LINE
8
Black
10
225.464
20
-122.63
11
235.9
21
-122.63
0
LINE
8
Black
10
235.9
20
-122.63
11
236.003
21
-122.648
0
LINE
8
Black
10
236.003
20
-122.648
11
236.093
21
-122.7
0
LINE
8
Black
10
236.093
20
-122.7
11
236.16
21
-122.78
0
LINE
8
Black
10
236.16
20
-122.78
11
236.195
21
-122.878
0
LINE
8
Black
10
236.195
20
-122.878
11
236.195
21
-122.982
0
LINE
8
Black
10
236.195
20
-122.982
11
236.16
21
-123.08
0
LINE
8
Black
10
236.16
20
-123.08
11
236.093
21
-123.16
0
LINE
8
Black
10
236.093
20
-123.16
11
236.003
21
-123.212
0
LINE
8
Black
10
236.003
20
-123.212
11
235.9
21
-123.23
0
LINE
8
Black
10
235.9
20
-123.23
11
225.32
21
-123.23
0
LINE
8
Black
10
225.32
20
-123.23
11
225.291
21
-123.225
0
LINE
8
Black
10
225.291
20
-123.225
11
225.261
21
-123.224
0
LINE
8
Black
10
225.261
20
-123.224
11
225.24
21
-123.216
0
LINE
8
Black
10
225.24
20
-123.216
11
225.217
21
-123.212
0
LINE
8
Black
10
225.217
20
-123.212
11
225.192
21
-123.197
0
LINE
8
Black
10
225.192
20
-123.197
11
225.164
21
-123.186
0
LINE
8
Black
10
225.164
20
-123.186
11
225.147
21
-123.171
0
LINE
8
Black
10
225.147
20
-123.171
11
225.127
21
-123.16
0
LINE
8
Black
10
225.127
20
-123.16
11
225.108
21
-123.137
0
LINE
8
Black
10
225.108
20
-123.137
11
225.086
21
-123.117
0
LINE
8
Black
10
225.086
20
-123.117
11
222.006
21
-119.267
0
LINE
8
Black
10
222.006
20
-119.267
11
221.956
21
-119.176
0
LINE
8
Black
10
221.956
20
-119.176
11
221.94
21
-119.073
0
LINE
8
Black
10
221.94
20
-119.073
11
221.961
21
-118.971
0
LINE
8
Black
10
221.961
20
-118.971
11
222.015
21
-118.882
0
LINE
8
Black
10
222.015
20
-118.882
11
222.096
21
-118.817
0
LINE
8
Black
10
222.096
20
-118.817
11
222.195
21
-118.783
0
LINE
8
Black
10
222.195
20
-118.783
11
222.299
21
-118.786
0
LINE
8
Black
10
236.003
20
-119.228
11
236.093
21
-119.28
0
LINE
8
Black
10
236.093
20
-119.28
11
236.16
21
-119.36
0
LINE
8
Black
10
236.16
20
-119.36
11
236.195
21
-119.458
0
LINE
8
Black
10
236.195
20
-119.458
11
236.195
21
-119.562
0
LINE
8
Black
10
236.195
20
-119.562
11
236.16
21
-119.66
0
LINE
8
Black
10
236.16
20
-119.66
11
236.093
21
-119.74
0
LINE
8
Black
10
236.093
20
-119.74
11
236.003
21
-119.792
0
LINE
8
Black
10
236.003
20
-119.792
11
235.9
21
-119.81
0
LINE
8
Black
10
235.9
20
-119.81
11
228.97
21
-119.81
0
LINE
8
Black
10
228.97
20
-119.81
11
228.867
21
-119.792
0
LINE
8
Black
10
228.867
20
-119.792
11
228.777
21
-119.74
0
LINE
8
Black
10
228.777
20
-119.74
11
228.71
21
-119.66
0
LINE
8
Black
10
228.71
20
-119.66
11
228.675
21
-119.562
0
LINE
8
Black
10
228.675
20
-119.562
11
228.675
21
-119.458
0
LINE
8
Black
10
228.675
20
-119.458
11
228.71
21
-119.36
0
LINE
8
Black
10
228.71
20
-119.36
11
228.777
21
-119.28
0
LINE
8
Black
10
228.777
20
-119.28
11
228.867
21
-119.228
0
LINE
8
Black
10
228.867
20
-119.228
11
228.97
21
-119.21
0
LINE
8
Black
10
228.97
20
-119.21
11
235.9
21
-119.21
0
LINE
8
Black
10
235.9
20
-119.21
11
236.003
21
-119.228
0
LINE
8
Black
10
229.51
20
-73.4502
11
229.59
21
-73.5172
0
LINE
8
Black
10
229.59
20
-73.5172
11
229.642
21
-73.6074
0
LINE
8
Black
10
229.642
20
-73.6074
11
229.66
21
-73.71
0
LINE
8
Black
10
229.66
20
-73.71
11
229.66
21
-74.11
0
LINE
8
Black
10
229.66
20
-74.11
11
238.36
21
-74.11
0
LINE
8
Black
10
238.36
20
-74.11
11
238.463
21
-74.1281
0
LINE
8
Black
10
238.463
20
-74.1281
11
238.553
21
-74.1802
0
LINE
8
Black
10
238.553
20
-74.1802
11
238.62
21
-74.26
0
LINE
8
Black
10
238.62
20
-74.26
11
238.655
21
-74.3579
0
LINE
8
Black
10
238.655
20
-74.3579
11
238.655
21
-74.4621
0
LINE
8
Black
10
238.655
20
-74.4621
11
238.62
21
-74.56
0
LINE
8
Black
10
238.62
20
-74.56
11
238.553
21
-74.6398
0
LINE
8
Black
10
238.553
20
-74.6398
11
238.463
21
-74.6919
0
LINE
8
Black
10
238.463
20
-74.6919
11
238.36
21
-74.71
0
LINE
8
Black
10
238.36
20
-74.71
11
229.36
21
-74.71
0
LINE
8
Black
10
229.36
20
-74.71
11
229.334
21
-74.7054
0
LINE
8
Black
10
229.334
20
-74.7054
11
229.308
21
-74.7054
0
LINE
8
Black
10
229.308
20
-74.7054
11
229.283
21
-74.6965
0
LINE
8
Black
10
229.283
20
-74.6965
11
229.257
21
-74.6919
0
LINE
8
Black
10
229.257
20
-74.6919
11
229.235
21
-74.6788
0
LINE
8
Black
10
229.235
20
-74.6788
11
229.21
21
-74.6698
0
LINE
8
Black
10
229.21
20
-74.6698
11
229.19
21
-74.6529
0
LINE
8
Black
10
229.19
20
-74.6529
11
229.167
21
-74.6398
0
LINE
8
Black
10
229.167
20
-74.6398
11
229.15
21
-74.6197
0
LINE
8
Black
10
229.15
20
-74.6197
11
229.13
21
-74.6028
0
LINE
8
Black
10
229.13
20
-74.6028
11
229.117
21
-74.5801
0
LINE
8
Black
10
229.117
20
-74.5801
11
229.1
21
-74.56
0
LINE
8
Black
10
229.1
20
-74.56
11
229.091
21
-74.5353
0
LINE
8
Black
10
229.091
20
-74.5353
11
229.078
21
-74.5126
0
LINE
8
Black
10
229.078
20
-74.5126
11
229.074
21
-74.4868
0
LINE
8
Black
10
229.074
20
-74.4868
11
229.065
21
-74.4621
0
LINE
8
Black
10
229.065
20
-74.4621
11
229.065
21
-74.4359
0
LINE
8
Black
10
229.065
20
-74.4359
11
229.06
21
-74.41
0
LINE
8
Black
10
229.06
20
-74.41
11
229.06
21
-73.71
0
LINE
8
Black
10
229.06
20
-73.71
11
229.078
21
-73.6074
0
LINE
8
Black
10
229.078
20
-73.6074
11
229.13
21
-73.5172
0
LINE
8
Black
10
229.13
20
-73.5172
11
229.21
21
-73.4502
0
LINE
8
Black
10
229.21
20
-73.4502
11
229.308
21
-73.4146
0
LINE
8
Black
10
229.308
20
-73.4146
11
229.412
21
-73.4146
0
LINE
8
Black
10
229.412
20
-73.4146
11
229.51
21
-73.4502
0
LINE
8
Black
10
238.463
20
-67.6281
11
238.553
21
-67.6802
0
LINE
8
Black
10
238.553
20
-67.6802
11
238.62
21
-67.76
0
LINE
8
Black
10
238.62
20
-67.76
11
238.655
21
-67.8579
0
LINE
8
Black
10
238.655
20
-67.8579
11
238.655
21
-67.9621
0
LINE
8
Black
10
238.655
20
-67.9621
11
238.62
21
-68.06
0
LINE
8
Black
10
238.62
20
-68.06
11
238.553
21
-68.1398
0
LINE
8
Black
10
238.553
20
-68.1398
11
238.463
21
-68.1919
0
LINE
8
Black
10
238.463
20
-68.1919
11
238.36
21
-68.21
0
LINE
8
Black
10
238.36
20
-68.21
11
231.784
21
-68.21
0
LINE
8
Black
10
231.784
20
-68.21
11
229.66
21
-70.3343
0
LINE
8
Black
10
229.66
20
-70.3343
11
229.66
21
-71.31
0
LINE
8
Black
10
229.66
20
-71.31
11
229.642
21
-71.4126
0
LINE
8
Black
10
229.642
20
-71.4126
11
229.59
21
-71.5028
0
LINE
8
Black
10
229.59
20
-71.5028
11
229.51
21
-71.5698
0
LINE
8
Black
10
229.51
20
-71.5698
11
229.412
21
-71.6054
0
LINE
8
Black
10
229.412
20
-71.6054
11
229.308
21
-71.6054
0
LINE
8
Black
10
229.308
20
-71.6054
11
229.21
21
-71.5698
0
LINE
8
Black
10
229.21
20
-71.5698
11
229.13
21
-71.5028
0
LINE
8
Black
10
229.13
20
-71.5028
11
229.078
21
-71.4126
0
LINE
8
Black
10
229.078
20
-71.4126
11
229.06
21
-71.31
0
LINE
8
Black
10
229.06
20
-71.31
11
229.06
21
-70.21
0
LINE
8
Black
10
229.06
20
-70.21
11
229.062
21
-70.197
0
LINE
8
Black
10
229.062
20
-70.197
11
229.061
21
-70.1839
0
LINE
8
Black
10
229.061
20
-70.1839
11
229.071
21
-70.146
0
LINE
8
Black
10
229.071
20
-70.146
11
229.078
21
-70.1074
0
LINE
8
Black
10
229.078
20
-70.1074
11
229.085
21
-70.096
0
LINE
8
Black
10
229.085
20
-70.096
11
229.088
21
-70.0832
0
LINE
8
Black
10
229.088
20
-70.0832
11
229.111
21
-70.0511
0
LINE
8
Black
10
229.111
20
-70.0511
11
229.13
21
-70.0172
0
LINE
8
Black
10
229.13
20
-70.0172
11
229.14
21
-70.0087
0
LINE
8
Black
10
229.14
20
-70.0087
11
229.148
21
-69.9979
0
LINE
8
Black
10
229.148
20
-69.9979
11
231.448
21
-67.6979
0
LINE
8
Black
10
231.448
20
-67.6979
11
231.459
21
-67.6903
0
LINE
8
Black
10
231.459
20
-67.6903
11
231.467
21
-67.6802
0
LINE
8
Black
10
231.467
20
-67.6802
11
231.501
21
-67.6606
0
LINE
8
Black
10
231.501
20
-67.6606
11
231.533
21
-67.6381
0
LINE
8
Black
10
231.533
20
-67.6381
11
231.546
21
-67.6347
0
LINE
8
Black
10
231.546
20
-67.6347
11
231.557
21
-67.6281
0
LINE
8
Black
10
231.557
20
-67.6281
11
231.596
21
-67.6213
0
LINE
8
Black
10
231.596
20
-67.6213
11
231.634
21
-67.6111
0
LINE
8
Black
10
231.634
20
-67.6111
11
231.647
21
-67.6123
0
LINE
8
Black
10
231.647
20
-67.6123
11
231.66
21
-67.61
0
LINE
8
Black
10
231.66
20
-67.61
11
238.36
21
-67.61
0
LINE
8
Black
10
238.36
20
-67.61
11
238.463
21
-67.6281
  0
ENDSEC
  0
EOF
